<svg xmlns="http://www.w3.org/2000/svg" version="1.1" xmlns:xlink="http://www.w3.org/1999/xlink" width="512" height="512" x="0" y="0" viewBox="0 0 68 68" style="enable-background:new 0 0 512 512" xml:space="preserve" class=""><g><path fill="#1dcd9f" d="M49.9 43.5c-1.1.3-2.3.6-3.4.5-.3.4-.3 1 0 1.4.8 1.1 2.7 1.2 2.5 3.1 0 .2-.1.4-.1.6.7.5.7 1.8.1 2.4.3 0 .4.4.3.7s-.2.5-.2.8.2.9.4.8c.6 1.6 1.3 3.2 2.2 4.7.8 1.3.3 3-.8 4.1-1.2 1.1-2.8 1.5-4.4 1.8-5.2 1-10.5 1.1-15.7 0-1.2-.3-2.5-.6-3.2-1.6-.8-1.1-.7-1.2-2.4-14.2-3.3 1.8-7.4 1.5-10.6-.4-6.3-3.7-9.1-13-4.9-21.4 2.4-4.9 6.9-8.8 12.4-10.3 3-.8 6.2-1 9.3-.8 7.2.3 13 2.8 17.4 8.8 2.8 3.8 4.4 8.2 4.6 12.5.5 4.4-1 5.8-3.5 6.5z" opacity="1" data-original="#fce67a" class=""></path><path fill="#169976" d="M49.9 43.5c-1.1.3-2.3.6-3.4.5-.3.4-.3 1 0 1.4.8 1.1 2.7 1.2 2.5 3.1-1.6-1.4-3.4-3-3.3-5.2.1-3.8 5.5-5.1 6-14.1 1.1 2.5 1.8 5.1 1.9 7.8.3 4.4-1.2 5.8-3.7 6.5zM51 62.6c-1.2 1.1-2.8 1.5-4.4 1.8-5.2 1-10.5 1.1-15.7 0-1.2-.3-2.5-.6-3.2-1.6-.8-1.1-.7-1.2-2.4-14.2-3.3 1.8-7.4 1.5-10.6-.4-6.3-3.7-9.1-13-4.9-21.4.4 3.7.8 4.3 1.7 8 1.2 3.3 3.2 6.4 6.1 8.4s6.8 2.6 10 1.1c.8 3.9 1.8 7.9 4.5 10.8 2.6 2.7 6.5 3.9 10.3 3.8 2.9-.1 5.8-.8 8.6-1.9.2.5.5.9.7 1.4.8 1.5.4 3.2-.7 4.2z" opacity="1" data-original="#ffdc00" class=""></path><path d="M39.6 45.1c-.3-.3-.5-.7-.6-1.1-.4-1.7.5-3.5 1.1-3.8.4-.2 1 0 1.4.2 1.6.8 2.2 2.3 2.5 3.7.1.2.1.4 0 .6-.2.4-.7.4-1 .2-.4-.2-.3-.5-.8-.2-.4.3-.4.6-1.1.7-.6.2-1.2 0-1.5-.3zM31.3 65.2c-3.6-.8-4.4-2.3-4.8-5.8L25 47.3c-.1-.7.9-.8 1-.1 1.6 13.3 1.4 14.4 2.5 15.7.7.8 1.9 1.2 2.9 1.4 4.4 1 9 .6 13.3.1 1.5-.2 2.8-.4 4-1 1-.5 2.1-1.6 2.3-2.9.2-1.6-1-3.2-1.3-5 0-.3.1-.5.4-.6.3 0 .5.1.6.4.3 1.7 1.6 3.3 1.3 5.3-.2 1.5-1.2 2.9-2.8 3.7-1.3.7-2.8.9-4.4 1.1-4.4.5-9 .8-13.5-.2zM13.6 45.7c-.2-.2-.1-.5.1-.7s.5-.1.7.1c2.3 3 6.5 4.4 10.1 3.4.3-.1.5.1.6.4s-.1.5-.4.6c-3.9 1.1-8.5-.5-11.1-3.8zM38.2 32.5c1.3-.6 2.7-.8 4.1-.5.3.1.4.3.4.6-.1.3-.3.4-.6.4-1.2-.2-2.4-.1-3.4.5-.6.2-1.1-.7-.5-1zM27.9 33.8c-5.6-1.5-11.2-3.4-16.5-5.7L10 30.5c-.1.2-.4.3-.7.2-.2-.2-.3-.5-.1-.7l1.6-2.7c.1-.2.4-.3.6-.2 5.4 2.4 11 4.3 16.7 5.8.3.1.4.3.4.6-.1.2-.3.4-.6.3zM30.2 31.1c-.2-.2-.3-.5-.1-.7.9-1.4 2.5-2.2 4.2-2.2.6 0 .7.9 0 1-1.3 0-2.6.6-3.3 1.7-.3.3-.6.4-.8.2zM41.8 27.9c-.2-.2-.1-.5.1-.7 1.3-1 3.1-1.1 4.4-.2.2.1.3.4.2.7-.1.2-.4.3-.7.2-1-.6-2.4-.5-3.3.2-.2.1-.6.1-.7-.2zM52.6 30l-1.1-.9c-.2-.2-.2-.5 0-.7s.5-.2.7 0l1.1.9c.2.2.2.5 0 .7-.1.2-.5.2-.7 0zM21.1 27c-.2-.2-.1-.5.1-.7l2.3-1.5c-1.1-1.9-1.9-1.9-1.8-2.5 0-.2.1-.3.3-.4 2.9-1.5 6-2.6 9.1-3.4l-1.6-2.9c-.1-.2-.1-.5.2-.7.2-.1.5-.1.7.2l2 3.5c.2.3 0 .7-.3.7-3.1.7-6.1 1.8-8.9 3.2.6.7 1.1 1.4 1.6 2.2.1.2 0 .5-.2.6L21.9 27c-.3.3-.6.2-.8 0z" fill="#ffffff" opacity="1" data-original="#000000" class=""></path><path d="M34.4 53.3c1.5-1.2 2.7-2.8 4.2-4s3.9-1.7 5.4-.5c-.2-1 1.1-1.8 2.2-2 2.2-.4 4.1 1.8 5.5 2.8 2.4 1.7 5.7 2.2 8.5 1.2-2.6 1.8-5.9 3.2-9.1 3.2-1.3 0-2.7.2-4 0-.4-.1-3.7-1.2-3.5-1.9-.9 2.4-2.9 3.2-5.2 3.7-2.8.6-5.4 1.3-8.3 1-2.4-.3-4.7-1.1-6.5-2.7 3.8 1 7.3 1.9 10.8-.8zM16.2 50.6c.2-.8.6-1.5 1.1-2.3.1-.2.4-.3.7-.2.2.1.3.4.2.7-.4.8-.8 1.4-1 2.1-1 3.3 2.6 4.5 4 2.5.8-1.2.4-2.8 0-4.3-.1-.3.1-.5.3-.6.3-.1.5.1.6.3.5 1.7.9 3.6-.1 5.1-2 3-7.1 1.2-5.8-3.3z" fill="#ffffff" opacity="1" data-original="#000000" class=""></path><path fill="#000000" d="M38.7 31.5c.5 3.3-1.8 6.4-5 6.8s-6.2-1.9-6.7-5.2M53.1 29.6c.5 3.3-1.8 6.4-5 6.8s-6.2-1.9-6.7-5.2" opacity="1" data-original="#14b5ff" class=""></path><path d="M16.6 16c-.2.3-.7.3-.9-.1-.8-1.4-3.8-6.5-4.7-8-.3-.4 0-.9.5-.8.8-.5 1.5-.9 2.4-1.5.3-.1.6 0 .7.3.2.3.1.6-.2.8-.2.1-.9.4-2.2 1.3.6.9 1.2 2 2.4 4.1.6-.4 1-.6 1.4-.9.3-.1.6 0 .7.3.2.3.1.6-.2.8-.1.1-.5.3-1.4.9.4.6.7 1.2 1 1.7.7-.4 1.4-.9 2.3-1.3.3-.1.6 0 .7.3.2.3.1.6-.2.8-.1-.1-.7.2-2.3 1.3zM23.6 9c0 1-.3 2.3-1.2 2.8.5.2.9.3 1.3.3.3 0 .5.3.5.6s-.2.5-.4.5c-.3.1-1.7-.1-2.9-1 .1.3.1.6.2.9s-.1.6-.4.7c-.3.1-.6-.2-.6-.5-.7-3.1-1.5-6.2-2.1-9.1 0-.2.2-.5.4-.6.3-.1.6.2.6.5v.1c.7-.9 1.9-1 2.7-.3 1.2 1 1.9 3.6 1.9 5.1zm-2.4-4.1c-.8-.7-1.8.3-1.6 1.6.2 1 .6 2.6.8 3.6.6 1.5 2.1 1.1 2.1-1.1.1-1.2-.6-3.5-1.3-4.1zM30.4 5.2c.2 1.2.2 2.3 0 3.3s-.8 2.2-1.7 2.5c.4.3.9.5 1.3.6.3.1.5.4.4.7s-.3.5-.6.4c-1-.3-1.9-.8-2.5-1.5v.9c0 .3-.2.6-.5.6s-.5-.3-.5-.6c-.1-3.1-.2-6.3-.2-9.4 0-.7 1-.9 1 .1.3-.3.7-.4 1.1-.5.6-.1 1.2.2 1.6.8.2.5.4 1.1.6 2.1zm-1.1.2c-.1-.8-.4-1.9-1.2-1.8-.5 0-1.1.6-1.1 1.5 0 1 .1 2.4.1 3.7.3 1.6 1.8 1.5 2.3-.7.1-.7.1-1.7-.1-2.7zM32.8 9.4c-.1-1.1-.1-2.8.4-4.3 1-3.2 3.4-3.5 4.3-1.6.9 2 0 6.3-.6 7.6-1.2 2.6-3.7 2.7-4.1-1.7zm3.1 1.2c.6-1.3 1.2-5.1.6-6.5-.4-.9-1.7-.7-2.4 1.4-.4 1.3-.4 2.8-.3 3.8.2 2.4 1.2 3.4 2.1 1.3zM43.9 10.7c-.5.9-1.5 1.8-2.5 1.8.3.4.7.7 1 .9.5.3.1 1.3-.5 1.1-.3-.1-1.4-1-2-2.3l-.3.9c-.1.3-.4.5-.7.4-.3-.1-.4-.4-.3-.7 1-3 2-6.1 2.9-8.9.2-.7 1.3-.5.9.5 1.1-.4 2.1.1 2.4 1.2.6 1.2-.1 3.8-.9 5.1zm.1-4.8c-.3-1-1.7-.7-2.1.5-.4 1.1-.5 1.7-1.1 3.5-.2 1.6 1.2 2 2.4.1.5-.9 1.1-3.2.8-4.1z" fill="#ffffff" opacity="1" data-original="#000000" class=""></path><path fill="#ffffff" d="m45.746 32.447.315-.388 2.639 2.145-.316.388zM47.83 31.793l.305-.397 1.269.974-.305.397zM30.447 34.352l.31-.392 2.663 2.115-.31.392zM33.105 33.842l.342-.366 1.242 1.161-.341.366z" opacity="1" data-original="#ffffff"></path><path d="M42.4 59.6c.3.2.9.1 1-.3.4.2.6.6.8 1s.6.7 1 .6c.4-.2.4-.5 1-2.5.1.4.3.8.6 1.1.8.9 2 .4 1.9-.8-.1-1.3-.8-2.8-2-3.5 0 .3-.1.5-.2.7-.2.2-.4.3-.7.2-.2-.1-.3-.4-.4-.6s-.4-.4-.6-.2c-.2.1-.1.5-.3.7s-.6.2-.8 0c-2.1-1.5-2.4 3-1.3 3.6z" fill="#ffffff" opacity="1" data-original="#000000" class=""></path></g></svg>