<svg xmlns="http://www.w3.org/2000/svg" width="34.664" height="34.664" viewBox="0 0 34.664 34.664"><g transform="translate(0 0)"><path d="M34.11,57.059,21.592,42.011a1.685,1.685,0,0,0-2.683,0l-1.137,1.367a2.515,2.515,0,0,0-.554,1.612,2.568,2.568,0,0,0,.554,1.631l7.3,8.8H1.873A2.062,2.062,0,0,0,0,57.662v1.932a2.161,2.161,0,0,0,1.873,2.341H25.158l-7.386,8.847a2.592,2.592,0,0,0,0,3.2l1.137,1.362a1.686,1.686,0,0,0,2.683,0L34.111,60.3a2.641,2.641,0,0,0,0-3.237Z" transform="translate(0 -41.346)" fill="#fff"/></g></svg>