<svg xmlns="http://www.w3.org/2000/svg" version="1.1" xmlns:xlink="http://www.w3.org/1999/xlink" width="512" height="512" x="0" y="0" viewBox="0 0 512 512" style="enable-background:new 0 0 512 512" xml:space="preserve"><g><path d="M82.13 171.989c15.018 0 27.236-12.218 27.236-27.236s-12.218-27.236-27.236-27.236-27.236 12.218-27.236 27.236 12.218 27.236 27.236 27.236zm0-38.473c6.196 0 11.236 5.041 11.236 11.236s-5.041 11.236-11.236 11.236-11.236-5.041-11.236-11.236 5.04-11.236 11.236-11.236zm0 135.732c15.018 0 27.236-12.218 27.236-27.236s-12.218-27.236-27.236-27.236-27.236 12.218-27.236 27.236 12.218 27.236 27.236 27.236zm0-38.473c6.196 0 11.236 5.041 11.236 11.236s-5.041 11.236-11.236 11.236-11.236-5.041-11.236-11.236 5.04-11.236 11.236-11.236zm0 81.259c-15.018 0-27.236 12.219-27.236 27.237s12.218 27.236 27.236 27.236 27.236-12.218 27.236-27.236-12.218-27.237-27.236-27.237zm0 38.474c-6.196 0-11.236-5.041-11.236-11.236 0-6.196 5.041-11.237 11.236-11.237s11.236 5.041 11.236 11.237c0 6.195-5.04 11.236-11.236 11.236zm397.009-24.168-19.814-7.627a129.61 129.61 0 0 0-12.543-30.257l8.624-19.416a7.999 7.999 0 0 0-1.654-8.904l-27.342-27.342a8.003 8.003 0 0 0-8.904-1.655l-19.424 8.627a129.67 129.67 0 0 0-30.248-12.541l-7.629-19.82a7.998 7.998 0 0 0-7.466-5.126h-11.333V63.371c0-16.664-17.001-30.882-49.167-41.12C263.364 13.062 225.126 8 184.57 8s-78.793 5.062-107.668 14.251c-32.165 10.237-49.167 24.457-49.167 41.12v288.813c0 16.663 17.001 30.883 49.167 41.12 28.875 9.189 67.112 14.251 107.668 14.251 10.022 0 19.993-.331 29.75-.949a129.862 129.862 0 0 0 5.709 11.217l-8.624 19.416a8 8 0 0 0 1.654 8.904l27.343 27.343a8.001 8.001 0 0 0 8.904 1.654l19.424-8.627a129.652 129.652 0 0 0 30.247 12.54l7.629 19.82a8 8 0 0 0 7.466 5.126h38.667a8 8 0 0 0 7.466-5.126l7.627-19.814a129.567 129.567 0 0 0 30.257-12.543l19.415 8.624a7.996 7.996 0 0 0 8.904-1.654l27.342-27.343a8.001 8.001 0 0 0 1.655-8.904l-8.626-19.424a129.634 129.634 0 0 0 12.54-30.247l19.82-7.629a7.998 7.998 0 0 0 5.126-7.466v-38.668a7.997 7.997 0 0 0-5.126-7.465zM81.754 37.498C109.102 28.793 145.615 24 184.57 24s75.468 4.793 102.816 13.498c28.032 8.922 38.02 19.215 38.02 25.874s-9.988 16.952-38.02 25.874c-27.348 8.704-63.861 13.498-102.816 13.498-38.954 0-75.468-4.793-102.816-13.498-28.031-8.922-38.019-19.215-38.019-25.874s9.987-16.953 38.019-25.874zM43.735 89.029c8.098 5.82 19.201 11.017 33.167 15.462 28.875 9.19 67.112 14.251 107.668 14.251s78.794-5.061 107.668-14.251c13.966-4.445 25.069-9.642 33.167-15.462v70.613c0 6.658-9.988 16.952-38.02 25.874-27.348 8.704-63.862 13.498-102.816 13.498s-75.468-4.793-102.816-13.498c-28.031-8.922-38.019-19.216-38.019-25.874V89.029zm0 96.271c8.098 5.82 19.201 11.017 33.167 15.462 28.875 9.19 67.112 14.251 107.668 14.251s78.794-5.062 107.669-14.251c13.966-4.445 25.068-9.641 33.167-15.462v16.979h-11.333a8 8 0 0 0-7.466 5.126l-7.63 19.82a129.637 129.637 0 0 0-30.247 12.541l-19.424-8.627a8.002 8.002 0 0 0-8.904 1.655l-27.342 27.343a7.999 7.999 0 0 0-1.654 8.904l8.625 19.421a129.455 129.455 0 0 0-3.031 5.65 452.41 452.41 0 0 1-32.429 1.173c-38.954 0-75.468-4.794-102.816-13.498-28.031-8.922-38.019-19.215-38.019-25.874V185.3zM184.57 391.556c-38.954 0-75.468-4.794-102.816-13.498-28.031-8.921-38.019-19.215-38.019-25.873v-70.613c8.098 5.82 19.201 11.017 33.167 15.462 28.875 9.19 67.112 14.252 107.668 14.252 8.554 0 17.056-.25 25.43-.701a129.792 129.792 0 0 0-2.511 8.127l-19.818 7.629a8 8 0 0 0-5.126 7.466v38.667a8 8 0 0 0 5.126 7.466l19.814 7.627c.307 1.125.637 2.242.973 3.357-7.867.41-15.86.632-23.888.632zm283.695-24.576-18.548 7.14a8 8 0 0 0-4.909 5.614 113.748 113.748 0 0 1-13.83 33.358 8.002 8.002 0 0 0-.5 7.441l8.074 18.18-19.574 19.574-18.171-8.071a7.997 7.997 0 0 0-7.443.5 113.675 113.675 0 0 1-33.367 13.831 7.999 7.999 0 0 0-5.615 4.909L347.246 488h-27.682l-7.139-18.548a7.994 7.994 0 0 0-5.614-4.908 113.752 113.752 0 0 1-33.359-13.831 7.997 7.997 0 0 0-7.441-.499l-18.18 8.074-19.575-19.574 8.071-18.172a7.998 7.998 0 0 0-.5-7.442 113.74 113.74 0 0 1-13.832-33.368 8 8 0 0 0-4.909-5.613l-18.542-7.138v-27.682l18.546-7.139a8.002 8.002 0 0 0 4.909-5.613 113.716 113.716 0 0 1 13.831-33.361 8.001 8.001 0 0 0 .499-7.442l-8.073-18.177 19.574-19.575 18.179 8.074a8.001 8.001 0 0 0 7.442-.499 113.777 113.777 0 0 1 33.358-13.831 8 8 0 0 0 5.614-4.909l7.14-18.548h27.682l7.139 18.548a7.998 7.998 0 0 0 5.614 4.909 113.718 113.718 0 0 1 33.359 13.831 7.998 7.998 0 0 0 7.442.499l18.179-8.074 19.574 19.574-8.071 18.172a7.998 7.998 0 0 0 .5 7.442 113.734 113.734 0 0 1 13.833 33.367 8 8 0 0 0 4.909 5.614l18.542 7.138zm-134.86-102.691c-48.992 0-88.85 39.858-88.85 88.852 0 48.992 39.858 88.85 88.85 88.85 48.993 0 88.851-39.857 88.851-88.85 0-48.994-39.859-88.852-88.851-88.852zm0 161.701c-40.17 0-72.85-32.68-72.85-72.85 0-40.171 32.68-72.852 72.85-72.852s72.851 32.681 72.851 72.852-32.681 72.85-72.851 72.85zm17.002-40.307a8 8 0 1 1-15.455 4.14l-18.549-69.227a8 8 0 0 1 15.455-4.141zm15.584-64.129 30.224 25.469a8 8 0 0 1 0 12.234l-30.224 25.469a7.967 7.967 0 0 1-5.151 1.883 8 8 0 0 1-5.16-14.117l22.964-19.352-22.964-19.352a7.999 7.999 0 0 1-.962-11.272c2.849-3.378 7.896-3.81 11.273-.962zm-54.862 12.234-22.964 19.352 22.964 19.352a7.999 7.999 0 0 1-5.16 14.117 7.96 7.96 0 0 1-5.151-1.883l-30.224-25.469a8 8 0 0 1 0-12.234l30.224-25.469a8 8 0 0 1 10.311 12.234z" fill="#ffffff" opacity="1" data-original="#000000"></path></g></svg>