<svg xmlns="http://www.w3.org/2000/svg" width="49.239" height="49.239" viewBox="0 0 49.239 49.239"><rect width="33.975" height="33.975" rx="16.987" transform="translate(7.632 7.632)" fill="#111"/><path d="M42.524,0H6.714A6.714,6.714,0,0,0,0,6.714v35.81a6.714,6.714,0,0,0,6.714,6.714h35.81a6.714,6.714,0,0,0,6.714-6.714V6.714A6.714,6.714,0,0,0,42.524,0ZM29.445,39.321c-.789.151-1.058-.325-1.058-.719,0-.492.02-2.118.02-4.141a3.589,3.589,0,0,0-1.038-2.8c3.422-.372,7.019-1.651,7.019-7.459a5.794,5.794,0,0,0-1.578-4.062,5.436,5.436,0,0,0-.154-4s-1.287-.406-4.2,1.55a14.786,14.786,0,0,0-7.694,0c-2.943-1.958-4.233-1.55-4.233-1.55a5.328,5.328,0,0,0-.148,4A5.774,5.774,0,0,0,14.8,24.2c0,5.791,3.592,7.092,6.994,7.47a3.2,3.2,0,0,0-.974,2.023,3.306,3.306,0,0,1-4.476-1.256,3.213,3.213,0,0,0-2.356-1.558s-1.5-.02-.109.918a4.029,4.029,0,0,1,1.712,2.21s.9,2.94,5.184,2.031c0,1.259.017,2.21.017,2.571s-.28.867-1.049.725A15.078,15.078,0,0,1,24.619,9.887,15.254,15.254,0,0,1,40.007,25.008,15.1,15.1,0,0,1,29.445,39.321Z" fill="#fff"/></svg>