<svg xmlns="http://www.w3.org/2000/svg" version="1.1" xmlns:xlink="http://www.w3.org/1999/xlink" width="512" height="512" x="0" y="0" viewBox="0 0 434.147 434.147" style="enable-background:new 0 0 512 512" xml:space="preserve" class=""><rect width="434.147" height="434.147" rx="86.82939999999999" ry="86.82939999999999" fill="#ffffff" shape="rounded" transform="matrix(0.7,0,0,0.7,65.12205047607424,65.12205047607424)"></rect><g transform="matrix(1,0,0,1,-5.684341886080802e-14,-1.1368683772161603e-13)"><path d="m27.336 14.372 28.177 360.474a13.333 13.333 0 0 0 9.263 11.67l148.268 47.008c2.622.831 5.437.831 8.059 0l148.268-47.008a13.333 13.333 0 0 0 9.263-11.67l28.177-360.474C407.417 6.622 401.292 0 393.519 0H40.629c-7.773 0-13.898 6.622-13.293 14.372zm307.217 111.843H150.918l5.542 51.105h174.099L319.17 323.013l-102.096 32.369-102.096-32.369-5.95-76.116h53.588v37.336l55.89 15 55.556-15 4.31-59.503H107.295L95.937 79.419H338.21l-3.657 46.796z" style="" fill="#fc490b" data-original="#fc490b" class=""></path></g></svg>