<svg xmlns="http://www.w3.org/2000/svg" xmlns:xlink="http://www.w3.org/1999/xlink" width="48" height="48" viewBox="0 0 48 48"><defs><clipPath id="a"><path d="M0-682.665H48v48H0Z" transform="translate(0 682.665)" stroke="#fff" stroke-width="1.333"/></clipPath></defs><g transform="translate(0 -0.002)"><g transform="translate(0 0.002)" clip-path="url(#a)"><path d="M-585.057-292.541c0,1.973-.027,3.946-.054,5.919a30.082,30.082,0,0,1-.666,7.1,11.339,11.339,0,0,1-3.782,6.136,12.246,12.246,0,0,1-7.112,2.679c-3.5.213-7.006.3-10.51.289-3.5.008-7.008-.076-10.51-.289a12.246,12.246,0,0,1-7.112-2.679,11.34,11.34,0,0,1-3.782-6.136,30.075,30.075,0,0,1-.666-7.1c-.027-1.973-.049-3.946-.054-5.919s.027-3.946.054-5.919a30.075,30.075,0,0,1,.666-7.1A11.34,11.34,0,0,1-624.8-311.7a12.246,12.246,0,0,1,7.112-2.679c3.5-.213,7.006-.3,10.51-.289,3.5-.008,7.008.076,10.51.289a12.245,12.245,0,0,1,7.112,2.679,11.338,11.338,0,0,1,3.782,6.136,30.082,30.082,0,0,1,.666,7.1C-585.084-296.487-585.062-294.514-585.057-292.541Z" transform="translate(631.181 316.541)" fill="rgba(0,0,0,0)" stroke="#fff" stroke-miterlimit="10" stroke-width="5"/><path d="M-260.312-130.156a9.844,9.844,0,0,1-9.844,9.844A9.844,9.844,0,0,1-280-130.156,9.844,9.844,0,0,1-270.156-140,9.844,9.844,0,0,1-260.312-130.156Z" transform="translate(294.062 154.156)" fill="rgba(0,0,0,0)" stroke="#fff" stroke-miterlimit="10" stroke-width="5"/><path d="M-74.375-37.187a2.813,2.813,0,0,1-2.812,2.813A2.813,2.813,0,0,1-80-37.187,2.813,2.813,0,0,1-77.187-40a2.813,2.813,0,0,1,2.813,2.813" transform="translate(114.125 48.531)" stroke="#fff" stroke-width="1.333"/></g></g></svg>