<svg xmlns="http://www.w3.org/2000/svg" width="48" height="48" viewBox="0 0 48 48"><g transform="translate(-1 -1)"><path d="M45,1H5A4.012,4.012,0,0,0,1,5V45a4.012,4.012,0,0,0,4,4H45a4.012,4.012,0,0,0,4-4V5A4.012,4.012,0,0,0,45,1Z" fill="#fff"/><path d="M21.3,20.7h5.2v2.6c.7-1.4,2.6-2.6,5.2-2.6,5.5,0,6.1,3.1,6.1,7.8V38H32.6V29.3c0-2,.2-4.3-2.6-4.3-3.5,0-3.5,2.1-3.5,4.3V38H21.3Zm-8.6,0h5.2V38H12.7Z" fill="#191a1a"/><circle cx="3" cy="3" r="3" transform="translate(12.3 12)" fill="#191a1a"/></g></svg>