<svg xmlns="http://www.w3.org/2000/svg" version="1.1" xmlns:xlink="http://www.w3.org/1999/xlink" width="512" height="512" x="0" y="0" viewBox="0 0 511.987 511.987" style="enable-background:new 0 0 512 512" xml:space="preserve" class=""><g><path d="M461.603 43.08 312.27.414a10.668 10.668 0 0 0-7.04.405l-256 106.667a10.666 10.666 0 0 0-6.549 9.835v277.333c0 5.85 4.711 10.608 10.56 10.667-5.891.036-10.637 4.842-10.6 10.732a10.667 10.667 0 0 0 7.336 10.068l256 85.333a10.99 10.99 0 0 0 3.371.533c.989-.006 1.973-.15 2.923-.427l149.333-42.667a10.667 10.667 0 0 0 7.744-10.24V53.32a10.669 10.669 0 0 0-7.745-10.24zM58.126 404.19l64-32a10.666 10.666 0 0 0 5.888-9.536V136.328l192-48v357.888L54.968 405.448a9.266 9.266 0 0 0-1.515-.128 10.802 10.802 0 0 0 4.673-1.13z" style="" fill="#ff5722" data-original="#ff5722" class=""></path></g></svg>